<svg xmlns="http://www.w3.org/2000/svg" viewBox="0 0 64 64">
  <defs>
    <linearGradient id="g" x1="0" y1="0" x2="1" y2="1">
      <stop offset="0" stop-color="#f07aa0"/><stop offset="1" stop-color="#c43c6b"/>
    </linearGradient>
  </defs>
  <rect width="64" height="64" rx="16" fill="#2b1a17"/>
  <rect x="14" y="34" width="36" height="16" rx="4" fill="#8a5a44"/>
  <rect x="17" y="24" width="30" height="13" rx="4" fill="url(#g)"/>
  <path d="M17 30c3 0 3 4 6 4s3-4 6-4 3 4 6 4 3-4 6-4 3 3 6 3v-5a4 4 0 0 0-4-4H21a4 4 0 0 0-4 4z" fill="#fde6ee"/>
  <rect x="30.5" y="13" width="3" height="10" rx="1.5" fill="#f5d08a"/>
  <path d="M32 6c3 3 3 6 0 7.5-3-1.5-3-4.5 0-7.5z" fill="#ffb347"/>
</svg>
